# xmcd
#
# Track frame offsets:
# 150
# 30350
# 48177
# 66217
# 102492
# 120475
# 138982
# 152865
# 170690
# 187082
# 201590
# 230235
#
# Disc length: 3332 seconds
#
#
# Revision: 2
# Processed by: cddbd v1.5.2PL0 Copyright (c) Steve Scherf et al.
# Submitted via: FreeRIP 2.951 
#
DISCID=af0d020c
DTITLE=Georgette Fry - Georgette
DYEAR=1900
DGENRE=
TTITLE0=I'd Rather Go Blind
TTITLE1=I Never Fool Nobody
TTITLE2=5 Months ... 2 Weeks ... 2 Days
TTITLE3=Drown In My Own Tears
TTITLE4=If We Can't Trust Each Other
TTITLE5=When Love Walks Away
TTITLE6=Don't Leave Me Guessin'
TTITLE7=You're Not the Only One
TTITLE8=Just Like a Fish
TTITLE9=Wild, Wild Young Man
TTITLE10=Rain is a Bring Down
TTITLE11=Living the Blues
EXTD=
EXTT0=
EXTT1=
EXTT2=
EXTT3=
EXTT4=
EXTT5=
EXTT6=
EXTT7=
EXTT8=
EXTT9=
EXTT10=
EXTT11=
PLAYORDER=
